<?xml version="1.0" encoding="UTF-8"?>
<svg width="30.039mm" height="31.309mm" version="1.1" viewBox="0 0 30.039 31.309" xmlns="http://www.w3.org/2000/svg" xmlns:cc="http://creativecommons.org/ns#" xmlns:dc="http://purl.org/dc/elements/1.1/" xmlns:rdf="http://www.w3.org/1999/02/22-rdf-syntax-ns#">
 <metadata>
  <rdf:RDF>
   <cc:Work rdf:about="">
    <dc:format>image/svg+xml</dc:format>
    <dc:type rdf:resource="http://purl.org/dc/dcmitype/StillImage"/>
    <dc:title/>
   </cc:Work>
  </rdf:RDF>
 </metadata>
 <g transform="translate(-55.963 -66.231)">
  <text x="43.845242" y="107.34524" fill="#000000" font-family="sans-serif" font-size="50.8px" stroke-width=".26458" style="line-height:1.25" xml:space="preserve"><tspan x="43.845242" y="107.34524" stroke-width=".26458"/></text>
  <g fill="#0c8d93" aria-label="R">
   <path transform="scale(.26458)" d="m220.45 250.32c-4.8 0-8.832 4.2228-8.832 9.2148-0.21804 19.999-0.0352 21.074-0.0352 29.184 0.0126 6.0512 4e-3 14.975 0 22.656-3e-3 5.013 1e-3 7.7941 0 14.785h8e-3c6e-3 9.9166 0.0164 11.926 0.0184 23.506 1e-3 5.7899-0.023 11.524-0.0269 18.902 3.1523 0 10.603 0 15.244 0.086l-3.8e-4 -18.881 7.6e-4 -23.612 26.236 0.1875c22.271 0.16013 27.264 12.096 27.264 23.424v18.882c3.3014-0.0857 9.2605-0.0857 15.361 0v-18.882c0-11.701-3.8673-23.541-14.223-30.92 9.0051-6.2705 14.248-16.409 14.248-30.133 0-19.008-10.175-38.398-41.855-38.398zm6.5293 14.975h26.111c22.272 0 27.264 12.096 27.264 23.424 0 14.784-9.2153 22.656-26.111 22.656-9.4929 9.7e-4 -19.229 9e-5 -27.416 0v-22.656z" fill="#0c8d93" stroke-width="0"/>
  </g>
  <circle cx="83.583" cy="94.989" r="2.4183" stroke="#000" stroke-width=".092125"/>
 </g>
</svg>
