<?xml version="1.0" encoding="UTF-8"?>
<svg width="163.25mm" height="31.309mm" version="1.1" viewBox="0 0 163.25 31.309" xmlns="http://www.w3.org/2000/svg" xmlns:cc="http://creativecommons.org/ns#" xmlns:dc="http://purl.org/dc/elements/1.1/" xmlns:rdf="http://www.w3.org/1999/02/22-rdf-syntax-ns#">
 <metadata>
  <rdf:RDF>
   <cc:Work rdf:about="">
    <dc:format>image/svg+xml</dc:format>
    <dc:type rdf:resource="http://purl.org/dc/dcmitype/StillImage"/>
    <dc:title/>
   </cc:Work>
  </rdf:RDF>
 </metadata>
 <g transform="translate(-55.963 -66.231)">
  <text x="43.845242" y="107.34524" fill="#ffffff" font-family="sans-serif" font-size="50.8px" stroke-width=".26458" style="line-height:1.25" xml:space="preserve"><tspan x="43.845242" y="107.34524" fill="#ffffff" stroke-width=".26458"/></text>
  <g fill="#fff">
   <g aria-label="R">
    <path transform="scale(.26458)" d="m220.45 250.32c-4.8 0-8.832 4.2228-8.832 9.2148-0.21804 19.999-0.0352 21.074-0.0352 29.184 0.0126 6.0512 4e-3 14.975 0 22.656-3e-3 5.013 1e-3 7.7941 0 14.785h8e-3c6e-3 9.9166 0.0164 11.926 0.0184 23.506 1e-3 5.7899-0.023 11.524-0.0269 18.902 3.1523 0 10.603 0 15.244 0.086l-3.8e-4 -18.881 7.6e-4 -23.612 26.236 0.1875c22.271 0.16013 27.264 12.096 27.264 23.424v18.882c3.3014-0.0857 9.2605-0.0857 15.361 0v-18.882c0-11.701-3.8673-23.541-14.223-30.92 9.0051-6.2705 14.248-16.409 14.248-30.133 0-19.008-10.175-38.398-41.855-38.398zm6.5293 14.975h26.111c22.272 0 27.264 12.096 27.264 23.424 0 14.784-9.2153 22.656-26.111 22.656-9.4929 9.7e-4 -19.229 9e-5 -27.416 0v-22.656z" fill="#fff" stroke-width="0"/>
   </g>
   <g stroke-width=".26458">
    <g aria-label="estotoco">
     <path d="m94.683 91.183 3.2039 0.39619q-0.75792 2.8078-2.8078 4.358t-5.2365 1.5503q-4.0135 0-6.3734-2.4632-2.3427-2.4805-2.3427-6.9419 0-4.6164 2.3771-7.1658 2.3771-2.5494 6.1667-2.5494 3.669 0 5.9945 2.4977 2.3254 2.4977 2.3254 7.028 0 0.27561-0.01723 0.82682h-13.643q0.17226 3.0145 1.7053 4.6164 1.5331 1.602 3.8241 1.602 1.7053 0 2.9111-0.89572 1.2058-0.89573 1.912-2.8594zm-10.18-5.0126h10.215q-0.20671-2.3082-1.1713-3.4623-1.4814-1.7915-3.8413-1.7915-2.136 0-3.6001 1.4297-1.4469 1.4297-1.602 3.8241z" style="font-variant-caps:normal;font-variant-east-asian:normal;font-variant-ligatures:normal;font-variant-numeric:normal"/>
     <path d="m100.56 91.614 3.0661-0.48231q0.25838 1.8431 1.4297 2.825 1.1886 0.98185 3.3073 0.98185 2.136 0 3.1695-0.86127 1.0335-0.8785 1.0335-2.0498 0-1.0508-0.91295-1.6536-0.63735-0.41341-3.1695-1.0508-3.4106-0.86128-4.737-1.4814-1.3091-0.63734-1.9982-1.7398-0.67179-1.1197-0.67179-2.4632 0-1.223 0.55121-2.2565 0.56844-1.0508 1.5331-1.7398 0.72347-0.53399 1.9637-0.89573 1.2575-0.37896 2.6872-0.37896 2.1532 0 3.7724 0.62012 1.6364 0.62012 2.4116 1.6881 0.77515 1.0508 1.068 2.825l-3.0317 0.41341q-0.20671-1.4125-1.2058-2.2049-0.98185-0.79237-2.7905-0.79237-2.136 0-3.0489 0.70624t-0.91295 1.6536q0 0.60289 0.37896 1.0852 0.37896 0.49954 1.1886 0.82682 0.46509 0.17226 2.7388 0.79237 3.2901 0.8785 4.582 1.4469 1.3091 0.55122 2.0498 1.6192 0.74069 1.068 0.74069 2.6527 0 1.5503-0.91295 2.9283-0.89572 1.3608-2.601 2.1187-1.7053 0.7407-3.8585 0.7407-3.5657 0-5.4432-1.4814-1.8604-1.4814-2.3771-4.3925z" style="font-variant-caps:normal;font-variant-east-asian:normal;font-variant-ligatures:normal;font-variant-numeric:normal"/>
     <path d="m126.21 94.301 0.44787 2.7389q-1.3091 0.27561-2.3427 0.27561-1.6881 0-2.6183-0.53399-0.93018-0.53399-1.3091-1.3953-0.37896-0.8785-0.37896-3.669v-10.525h-2.2738v-2.4116h2.2738v-4.5303l3.0834-1.8604v6.3907h3.1178v2.4116h-3.1178v10.697q0 1.3264 0.15503 1.7053 0.17225 0.37896 0.53399 0.60289 0.37896 0.22393 1.068 0.22393 0.51676 0 1.3608-0.12058z" style="font-variant-caps:normal;font-variant-east-asian:normal;font-variant-ligatures:normal;font-variant-numeric:normal"/>
     <path d="m128.07 87.927q0-5.0815 2.825-7.5275 2.3599-2.0326 5.7533-2.0326 3.7724 0 6.1667 2.4805 2.3944 2.4632 2.3944 6.8213 0 3.5312-1.068 5.5638-1.0508 2.0154-3.0834 3.135-2.0154 1.1197-4.4097 1.1197-3.8413 0-6.2184-2.4632-2.3599-2.4632-2.3599-7.0969zm3.1867 0q0 3.514 1.5331 5.271 1.5331 1.7398 3.8585 1.7398 2.3082 0 3.8413-1.757t1.5331-5.3571q0-3.3934-1.5503-5.1332-1.5331-1.757-3.8241-1.757-2.3254 0-3.8585 1.7398t-1.5331 5.2538z" style="font-variant-caps:normal;font-variant-east-asian:normal;font-variant-ligatures:normal;font-variant-numeric:normal"/>
    </g>
    <path d="m155.63 94.301 0.44787 2.7389c-0.87276 0.18374-1.6536 0.27561-2.3427 0.27561-1.1254 0-1.9982-0.178-2.6183-0.53399-0.62011-0.35599-1.0565-0.82108-1.3091-1.3953-0.25264-0.58567-0.37896-1.8087-0.37896-3.669v-17.467l3.0834-1.8604v19.499c0 0.88424 0.0517 1.4527 0.15503 1.7053 0.11483 0.25264 0.29283 0.4536 0.53399 0.60289 0.25264 0.14929 0.60863 0.22393 1.068 0.22393 0.34451 0 0.79811-0.04019 1.3608-0.12058z" style="font-variant-caps:normal;font-variant-east-asian:normal;font-variant-ligatures:normal;font-variant-numeric:normal"/>
    <path d="m157.49 87.927q0-5.0815 2.825-7.5275 2.3599-2.0326 5.7533-2.0326 3.7724 0 6.1667 2.4805 2.3943 2.4632 2.3943 6.8213 0 3.5312-1.068 5.5638-1.0508 2.0154-3.0834 3.135-2.0154 1.1197-4.4097 1.1197-3.8413 0-6.2184-2.4632-2.3599-2.4632-2.3599-7.0969zm3.1867 0q0 3.514 1.5331 5.271 1.5331 1.7398 3.8585 1.7398 2.3082 0 3.8413-1.757t1.5331-5.3571q0-3.3934-1.5503-5.1332-1.5331-1.757-3.8241-1.757-2.3254 0-3.8585 1.7398-1.5331 1.7398-1.5331 5.2538z" style="font-variant-caps:normal;font-variant-east-asian:normal;font-variant-ligatures:normal;font-variant-numeric:normal"/>
    <path d="m190.22 90.373 3.0489 0.39619q-0.49954 3.1523-2.5666 4.9437-2.0498 1.7742-5.0471 1.7742-3.7552 0-6.0462-2.446-2.2738-2.4632-2.2738-7.0452 0-2.9628 0.98185-5.1849t2.98-3.3245q2.0154-1.1197 4.3753-1.1197 2.98 0 4.8748 1.5158 1.8948 1.4986 2.4288 4.2719l-3.0145 0.46509q-0.43064-1.8431-1.5331-2.7733-1.0852-0.93018-2.6355-0.93018-2.3427 0-3.8068 1.6881-1.4642 1.6709-1.4642 5.3055 0 3.6863 1.4125 5.3571 1.4125 1.6709 3.6863 1.6709 1.8259 0 3.0489-1.1197 1.223-1.1197 1.5503-3.4451z" style="font-variant-caps:normal;font-variant-east-asian:normal;font-variant-ligatures:normal;font-variant-numeric:normal"/>
    <path d="m194.76 87.927q0-5.0815 2.825-7.5275 2.3599-2.0326 5.7533-2.0326 3.7724 0 6.1667 2.4805 2.3943 2.4632 2.3943 6.8213 0 3.5312-1.068 5.5638-1.0508 2.0154-3.0834 3.135-2.0154 1.1197-4.4097 1.1197-3.8413 0-6.2184-2.4632-2.3599-2.4632-2.3599-7.0969zm3.1867 0q0 3.514 1.5331 5.271 1.5331 1.7398 3.8585 1.7398 2.3082 0 3.8413-1.757t1.5331-5.3571q0-3.3934-1.5503-5.1332-1.5331-1.757-3.8241-1.757-2.3254 0-3.8585 1.7398t-1.5331 5.2538z" style="font-variant-caps:normal;font-variant-east-asian:normal;font-variant-ligatures:normal;font-variant-numeric:normal"/>
   </g>
   <circle cx="216.8" cy="95.023" r="2.4183" stroke="#000" stroke-width=".092125"/>
  </g>
 </g>
</svg>
